<svg xmlns="http://www.w3.org/2000/svg" xmlns:v="https://svgstorm.com"
viewBox = "0 0 980 980"
width="980"
height="980">
<g fill="None" fill-opacity="0.0" stroke="#000000" stroke-opacity="0.00" stroke-width="0.3"><path d="
M 0.00 447.00 
C 10.58 332.44 60.79 225.70 143.75 142.75 C 226.71 59.80 334.93 10.15 450.00 0.00
L 0.00 0.00
L 0.00 447.00 Z"/>
</g>
<g fill="None" fill-opacity="0.0" stroke="#0096DE" stroke-opacity="1.00" stroke-width="0.3"><path d="
M 0.00 447.00 
L 0.00 533.00
C 11.96 649.49 62.26 756.90 148.25 840.75 C 234.24 924.60 346.84 972.74 465.00 980.00
L 520.00 980.00
C 638.69 971.10 749.15 921.49 835.25 836.25 C 921.35 751.01 970.19 639.16 980.00 521.00
L 980.00 457.00
C 971.40 339.91 921.58 230.20 837.75 145.25 C 753.92 60.30 645.20 10.69 529.00 0.00
L 450.00 0.00
C 334.93 10.15 226.71 59.80 143.75 142.75 C 60.79 225.70 10.58 332.44 0.00 447.00
M 369.00 144.00 
C 387.55 147.01 393.16 172.88 403.92 186.08 C 414.68 199.29 423.26 219.26 433.75 233.25 C 444.25 247.23 452.54 267.38 462.92 281.08 C 473.31 294.77 488.61 320.23 469.30 332.30 C 450.00 344.37 438.46 348.61 418.31 359.31 C 398.15 370.00 401.70 395.21 408.93 413.07 C 416.15 430.93 424.09 448.30 435.25 463.75 C 446.42 479.19 454.58 495.76 464.92 511.08 C 475.27 526.39 485.11 543.25 494.77 558.23 C 504.43 573.21 518.06 588.68 529.92 601.08 C 541.77 613.49 560.72 635.44 578.23 624.23 C 595.74 613.02 603.71 603.49 620.23 589.23 C 636.75 574.97 658.00 584.81 666.25 603.75 C 674.51 622.68 687.67 632.86 696.30 650.70 C 704.94 668.53 718.40 680.51 726.30 698.70 C 734.21 716.88 750.97 726.95 754.00 748.00 C 757.03 769.06 730.17 776.81 713.77 784.77 C 697.37 792.73 676.37 803.29 655.98 803.98 C 635.58 804.67 607.73 799.94 589.32 792.68 C 570.91 785.42 553.43 778.01 537.30 767.70 C 521.18 757.38 507.54 746.89 493.30 734.70 C 479.06 722.51 466.95 710.58 453.75 697.25 C 440.56 683.92 429.57 670.59 417.75 656.25 C 405.93 641.91 395.28 626.67 384.70 611.30 C 374.12 595.94 363.99 580.97 354.23 564.77 C 344.47 548.57 335.73 532.45 326.70 515.31 C 317.66 498.16 309.76 481.25 302.03 462.98 C 294.29 444.70 285.91 427.63 280.22 407.78 C 274.54 387.92 269.22 365.13 266.07 343.93 C 262.93 322.72 262.41 292.87 264.93 271.93 C 267.44 250.98 274.00 230.42 282.77 212.77 C 291.54 195.12 303.05 181.96 319.25 172.25 C 335.44 162.53 348.39 140.65 369.00 144.00 Z"/>
</g>
<g fill="None" fill-opacity="0.0" stroke="#000000" stroke-opacity="0.00" stroke-width="0.3"><path d="
M 980.00 457.00 
L 980.00 0.00
L 529.00 0.00
C 645.20 10.69 753.92 60.30 837.75 145.25 C 921.58 230.20 971.40 339.91 980.00 457.00 Z"/>
</g>
<g fill="None" fill-opacity="0.0" stroke="#F5F6F8" stroke-opacity="1.00" stroke-width="0.3"><path d="
M 369.00 144.00 
C 348.39 140.65 335.44 162.53 319.25 172.25 C 303.05 181.96 291.54 195.12 282.77 212.77 C 274.00 230.42 267.44 250.98 264.93 271.93 C 262.41 292.87 262.93 322.72 266.07 343.93 C 269.22 365.13 274.54 387.92 280.22 407.78 C 285.91 427.63 294.29 444.70 302.03 462.98 C 309.76 481.25 317.66 498.16 326.70 515.31 C 335.73 532.45 344.47 548.57 354.23 564.77 C 363.99 580.97 374.12 595.94 384.70 611.30 C 395.28 626.67 405.93 641.91 417.75 656.25 C 429.57 670.59 440.56 683.92 453.75 697.25 C 466.95 710.58 479.06 722.51 493.30 734.70 C 507.54 746.89 521.18 757.38 537.30 767.70 C 553.43 778.01 570.91 785.42 589.32 792.68 C 607.73 799.94 635.58 804.67 655.98 803.98 C 676.37 803.29 697.37 792.73 713.77 784.77 C 730.17 776.81 757.03 769.06 754.00 748.00 C 750.97 726.95 734.21 716.88 726.30 698.70 C 718.40 680.51 704.94 668.53 696.30 650.70 C 687.67 632.86 674.51 622.68 666.25 603.75 C 658.00 584.81 636.75 574.97 620.23 589.23 C 603.71 603.49 595.74 613.02 578.23 624.23 C 560.72 635.44 541.77 613.49 529.92 601.08 C 518.06 588.68 504.43 573.21 494.77 558.23 C 485.11 543.25 475.27 526.39 464.92 511.08 C 454.58 495.76 446.42 479.19 435.25 463.75 C 424.09 448.30 416.15 430.93 408.93 413.07 C 401.70 395.21 398.15 370.00 418.31 359.31 C 438.46 348.61 450.00 344.37 469.30 332.30 C 488.61 320.23 473.31 294.77 462.92 281.08 C 452.54 267.38 444.25 247.23 433.75 233.25 C 423.26 219.26 414.68 199.29 403.92 186.08 C 393.16 172.88 387.55 147.01 369.00 144.00 Z"/>
</g>
<g fill="None" fill-opacity="0.0" stroke="#000000" stroke-opacity="0.00" stroke-width="0.3"><path d="
M 520.00 980.00 
L 980.00 980.00
L 980.00 521.00
C 970.19 639.16 921.35 751.01 835.25 836.25 C 749.15 921.49 638.69 971.10 520.00 980.00 Z"/>
</g>
<g fill="None" fill-opacity="0.0" stroke="#000000" stroke-opacity="0.00" stroke-width="0.3"><path d="
M 0.00 980.00 
L 465.00 980.00
C 346.84 972.74 234.24 924.60 148.25 840.75 C 62.26 756.90 11.96 649.49 0.00 533.00
L 0.00 980.00 Z"/>
</g>
<g fill="#000000" fill-opacity="0.00" stroke="None">
<path d="
M 0.00 447.00 
C 10.58 332.44 60.79 225.70 143.75 142.75 C 226.71 59.80 334.93 10.15 450.00 0.00
L 0.00 0.00
L 0.00 447.00 Z"/>
</g>
<g fill="#0096DE" fill-opacity="1.00" stroke="None">
<path d="
M 0.00 447.00 
L 0.00 533.00
C 11.96 649.49 62.26 756.90 148.25 840.75 C 234.24 924.60 346.84 972.74 465.00 980.00
L 520.00 980.00
C 638.69 971.10 749.15 921.49 835.25 836.25 C 921.35 751.01 970.19 639.16 980.00 521.00
L 980.00 457.00
C 971.40 339.91 921.58 230.20 837.75 145.25 C 753.92 60.30 645.20 10.69 529.00 0.00
L 450.00 0.00
C 334.93 10.15 226.71 59.80 143.75 142.75 C 60.79 225.70 10.58 332.44 0.00 447.00
M 369.00 144.00 
C 387.55 147.01 393.16 172.88 403.92 186.08 C 414.68 199.29 423.26 219.26 433.75 233.25 C 444.25 247.23 452.54 267.38 462.92 281.08 C 473.31 294.77 488.61 320.23 469.30 332.30 C 450.00 344.37 438.46 348.61 418.31 359.31 C 398.15 370.00 401.70 395.21 408.93 413.07 C 416.15 430.93 424.09 448.30 435.25 463.75 C 446.42 479.19 454.58 495.76 464.92 511.08 C 475.27 526.39 485.11 543.25 494.77 558.23 C 504.43 573.21 518.06 588.68 529.92 601.08 C 541.77 613.49 560.72 635.44 578.23 624.23 C 595.74 613.02 603.71 603.49 620.23 589.23 C 636.75 574.97 658.00 584.81 666.25 603.75 C 674.51 622.68 687.67 632.86 696.30 650.70 C 704.94 668.53 718.40 680.51 726.30 698.70 C 734.21 716.88 750.97 726.95 754.00 748.00 C 757.03 769.06 730.17 776.81 713.77 784.77 C 697.37 792.73 676.37 803.29 655.98 803.98 C 635.58 804.67 607.73 799.94 589.32 792.68 C 570.91 785.42 553.43 778.01 537.30 767.70 C 521.18 757.38 507.54 746.89 493.30 734.70 C 479.06 722.51 466.95 710.58 453.75 697.25 C 440.56 683.92 429.57 670.59 417.75 656.25 C 405.93 641.91 395.28 626.67 384.70 611.30 C 374.12 595.94 363.99 580.97 354.23 564.77 C 344.47 548.57 335.73 532.45 326.70 515.31 C 317.66 498.16 309.76 481.25 302.03 462.98 C 294.29 444.70 285.91 427.63 280.22 407.78 C 274.54 387.92 269.22 365.13 266.07 343.93 C 262.93 322.72 262.41 292.87 264.93 271.93 C 267.44 250.98 274.00 230.42 282.77 212.77 C 291.54 195.12 303.05 181.96 319.25 172.25 C 335.44 162.53 348.39 140.65 369.00 144.00 Z"/>
</g>
<g fill="#000000" fill-opacity="0.00" stroke="None">
<path d="
M 980.00 457.00 
L 980.00 0.00
L 529.00 0.00
C 645.20 10.69 753.92 60.30 837.75 145.25 C 921.58 230.20 971.40 339.91 980.00 457.00 Z"/>
</g>
<g fill="#F5F6F8" fill-opacity="1.00" stroke="None">
<path d="
M 369.00 144.00 
C 348.39 140.65 335.44 162.53 319.25 172.25 C 303.05 181.96 291.54 195.12 282.77 212.77 C 274.00 230.42 267.44 250.98 264.93 271.93 C 262.41 292.87 262.93 322.72 266.07 343.93 C 269.22 365.13 274.54 387.92 280.22 407.78 C 285.91 427.63 294.29 444.70 302.03 462.98 C 309.76 481.25 317.66 498.16 326.70 515.31 C 335.73 532.45 344.47 548.57 354.23 564.77 C 363.99 580.97 374.12 595.94 384.70 611.30 C 395.28 626.67 405.93 641.91 417.75 656.25 C 429.57 670.59 440.56 683.92 453.75 697.25 C 466.95 710.58 479.06 722.51 493.30 734.70 C 507.54 746.89 521.18 757.38 537.30 767.70 C 553.43 778.01 570.91 785.42 589.32 792.68 C 607.73 799.94 635.58 804.67 655.98 803.98 C 676.37 803.29 697.37 792.73 713.77 784.77 C 730.17 776.81 757.03 769.06 754.00 748.00 C 750.97 726.95 734.21 716.88 726.30 698.70 C 718.40 680.51 704.94 668.53 696.30 650.70 C 687.67 632.86 674.51 622.68 666.25 603.75 C 658.00 584.81 636.75 574.97 620.23 589.23 C 603.71 603.49 595.74 613.02 578.23 624.23 C 560.72 635.44 541.77 613.49 529.92 601.08 C 518.06 588.68 504.43 573.21 494.77 558.23 C 485.11 543.25 475.27 526.39 464.92 511.08 C 454.58 495.76 446.42 479.19 435.25 463.75 C 424.09 448.30 416.15 430.93 408.93 413.07 C 401.70 395.21 398.15 370.00 418.31 359.31 C 438.46 348.61 450.00 344.37 469.30 332.30 C 488.61 320.23 473.31 294.77 462.92 281.08 C 452.54 267.38 444.25 247.23 433.75 233.25 C 423.26 219.26 414.68 199.29 403.92 186.08 C 393.16 172.88 387.55 147.01 369.00 144.00 Z"/>
</g>
<g fill="#000000" fill-opacity="0.00" stroke="None">
<path d="
M 520.00 980.00 
L 980.00 980.00
L 980.00 521.00
C 970.19 639.16 921.35 751.01 835.25 836.25 C 749.15 921.49 638.69 971.10 520.00 980.00 Z"/>
</g>
<g fill="#000000" fill-opacity="0.00" stroke="None">
<path d="
M 0.00 980.00 
L 465.00 980.00
C 346.84 972.74 234.24 924.60 148.25 840.75 C 62.26 756.90 11.96 649.49 0.00 533.00
L 0.00 980.00 Z"/>
</g>
</svg>